HIERARCHY
ROOT Hips
{
	OFFSET 0.000000 0.000000 0.000000
	CHANNELS 6 Xposition Yposition Zposition Xrotation Yrotation Zrotation
	JOINT LeftUpLeg_virtual
	{
		OFFSET 0.000000 0.000000 0.000000
		CHANNELS 3 Xrotation Yrotation Zrotation
		JOINT LeftUpLeg
		{
			OFFSET 13.026900 -6.336304 -1.092800
			CHANNELS 3 Xrotation Yrotation Zrotation
			JOINT LeftLeg
			{
				OFFSET 0.524474 -46.096886 9.782700
				CHANNELS 3 Xrotation Yrotation Zrotation
				JOINT LeftFoot
				{
					OFFSET -0.524474 -53.427422 -12.948200
					CHANNELS 3 Xrotation Yrotation Zrotation
					JOINT LeftToeBase
					{
						OFFSET 0.192200 -14.009700 16.364100
						CHANNELS 3 Xrotation Yrotation Zrotation
						JOINT LeftToe_End
						{
							OFFSET -1.784700 -0.561700 9.474800
							CHANNELS 3 Xrotation Yrotation Zrotation
							End Site
							{
								OFFSET 0 0 0
							}
						}
					}
				}
			}
		}
	}
	JOINT RightUpLeg_virtual
	{
		OFFSET 0.000000 0.000000 0.000000
		CHANNELS 3 Xrotation Yrotation Zrotation
		JOINT RightUpLeg
		{
			OFFSET -12.883000 -6.336304 -1.092800
			CHANNELS 3 Xrotation Yrotation Zrotation
			JOINT RightLeg
			{
				OFFSET -0.524587 -46.096825 9.782800
				CHANNELS 3 Xrotation Yrotation Zrotation
				JOINT RightFoot
				{
					OFFSET 0.524587 -53.427383 -12.948300
					CHANNELS 3 Xrotation Yrotation Zrotation
					JOINT RightToeBase
					{
						OFFSET -0.192200 -14.009700 16.364100
						CHANNELS 3 Xrotation Yrotation Zrotation
						JOINT RightToe_End
						{
							OFFSET 1.784700 -0.561700 9.474800
							CHANNELS 3 Xrotation Yrotation Zrotation
							End Site
							{
								OFFSET 0 0 0
							}
						}
					}
				}
			}
		}
	}
	JOINT Spine_virtual
	{
		OFFSET 0.000000 0.000000 0.000000
		CHANNELS 3 Xrotation Yrotation Zrotation
		JOINT Spine
		{
			OFFSET 0.072000 7.257294 -0.789700
			CHANNELS 3 Xrotation Yrotation Zrotation
			JOINT Spine1
			{
				OFFSET 0.000000 12.508769 -0.658067
				CHANNELS 3 Xrotation Yrotation Zrotation
				JOINT Spine1_split
				{
					OFFSET 0.000000 12.508769 -0.658067
					CHANNELS 3 Xrotation Yrotation Zrotation
					JOINT Spine2
					{
						OFFSET 0.000000 12.508769 -0.658067
						CHANNELS 3 Xrotation Yrotation Zrotation
						JOINT Neck_virtual
						{
							OFFSET 0.000000 0.000000 0.000000
							CHANNELS 3 Xrotation Yrotation Zrotation
							JOINT Neck
							{
								OFFSET 0.000000 14.033295 7.520400
								CHANNELS 3 Xrotation Yrotation Zrotation
								JOINT Head
								{
									OFFSET 0.000000 8.198502 5.703100
									CHANNELS 3 Xrotation Yrotation Zrotation
									JOINT HeadTop_End
									{
										OFFSET 0.000000 17.760803 13.332701
										CHANNELS 3 Xrotation Yrotation Zrotation
										End Site
										{
											OFFSET 0 0 0
										}
									}
								}
							}
						}
						JOINT LeftShoulder_virtual
						{
							OFFSET 0.000000 0.000000 0.000000
							CHANNELS 3 Xrotation Yrotation Zrotation
							JOINT LeftShoulder
							{
								OFFSET 6.292450 5.785301 -0.669000
								CHANNELS 3 Xrotation Yrotation Zrotation
								JOINT LeftShoulder_split
								{
									OFFSET 6.292450 5.785301 -0.669000
									CHANNELS 3 Xrotation Yrotation Zrotation
									JOINT LeftArm
									{
										OFFSET 13.907140 -6.093903 1.965100
										CHANNELS 3 Xrotation Yrotation Zrotation
										JOINT LeftForeArm
										{
											OFFSET 34.140198 0.000000 0.000000
											CHANNELS 3 Xrotation Yrotation Zrotation
											JOINT LeftHand
											{
												OFFSET 40.960209 0.000000 0.000000
												CHANNELS 3 Xrotation Yrotation Zrotation
												End Site
												{
													OFFSET 0 0 0
												}
											}
										}
									}
								}
							}
						}
						JOINT RightShoulder_virtual
						{
							OFFSET 0.000000 0.000000 0.000000
							CHANNELS 3 Xrotation Yrotation Zrotation
							JOINT RightShoulder
							{
								OFFSET -6.292450 5.785301 -0.669000
								CHANNELS 3 Xrotation Yrotation Zrotation
								JOINT RightShoulder_split
								{
									OFFSET -6.292450 5.785301 -0.669000
									CHANNELS 3 Xrotation Yrotation Zrotation
									JOINT RightArm
									{
										OFFSET -13.907140 -6.093903 1.965100
										CHANNELS 3 Xrotation Yrotation Zrotation
										JOINT RightForeArm
										{
											OFFSET -34.140198 0.000000 0.000000
											CHANNELS 3 Xrotation Yrotation Zrotation
											JOINT RightHand
											{
												OFFSET -40.960209 0.000000 0.000000
												CHANNELS 3 Xrotation Yrotation Zrotation
												End Site
												{
													OFFSET 0 0 0
												}
											}
										}
									}
								}
							}
						}
					}
				}
			}
		}
	}
}
MOTION
Frames: 10
Frame Time: 0.03333333
-2.037245 111.132317 1.941849 0.000000 0.000000 0.000000 4.823748 -14.871654 9.794482 -25.058246 -7.502693 -10.128851 12.642542 -4.347407 -7.114942 9.347311 -23.850700 6.659534 -1.385915 -0.645918 0.896513 0.000000 0.000000 0.000000 4.539464 -13.280843 9.844983 0.836987 -14.432004 -14.293728 32.235187 6.574173 -1.640783 -9.862098 -3.517592 8.918791 -19.420731 -0.011477 1.096619 0.000000 0.000000 0.000000 3.793808 -14.441959 8.567666 1.877110 5.560793 0.840824 5.787968 9.450072 2.209400 0.770852 -2.091412 0.825844 0.000000 0.000000 0.000000 4.967509 9.330070 2.207690 -2.200752 -0.082552 -1.885259 -7.065027 -1.573500 -11.957693 0.000000 0.000000 0.000000 4.801118 9.566516 1.982557 0.524855 0.474827 -13.153904 1.140532 1.886923 -1.858941 -18.982202 -24.777908 -69.917218 0.232211 -65.233231 -1.627002 0.000000 0.000000 0.000000 4.977631 9.531890 2.235971 1.061338 11.337421 18.362105 -1.775080 2.487865 -1.534870 -45.469577 56.337169 71.832683 -2.429467 39.602629 0.930315 0.000000 0.000000 0.000000 
-1.823863 111.060707 1.878357 0.000000 0.000000 0.000000 4.774397 -14.871420 9.639030 -25.179004 -7.965589 -9.991069 12.909206 -4.668670 -7.261517 9.287274 -24.273724 6.315262 -1.474089 -0.609208 0.917108 0.000000 0.000000 0.000000 4.598583 -13.121972 9.720035 1.217696 -14.438132 -14.349867 31.767896 6.435549 -1.459623 -10.274628 -3.419423 8.704303 -18.803296 0.035558 0.974604 0.000000 0.000000 0.000000 3.851410 -14.498200 8.318732 1.975654 5.566155 0.955809 5.775446 9.426698 2.192943 0.864065 -2.080189 0.790722 0.000000 0.000000 0.000000 4.969125 9.298213 2.198941 -2.194171 -0.038996 -1.920167 -7.111324 -1.669883 -11.977823 0.000000 0.000000 0.000000 4.772995 9.535778 1.960703 0.515454 0.420318 -13.144848 1.227617 2.009075 -1.824803 -19.365405 -24.968670 -70.025463 0.352288 -65.365703 -1.533381 0.000000 0.000000 0.000000 4.978915 9.510036 2.230914 1.069693 11.185865 18.311782 -1.844899 2.508761 -1.544273 -45.655003 56.345642 71.934309 -2.401147 39.824135 0.915481 0.000000 0.000000 0.000000 
-1.654810 110.859108 1.825790 0.000000 0.000000 0.000000 4.590327 -15.154839 9.272458 -25.588277 -8.153943 -9.660375 13.736719 -5.040330 -7.419139 9.159028 -24.806363 5.772530 -1.514283 -0.493538 0.891640 0.000000 0.000000 0.000000 4.694637 -13.302387 9.344442 2.079444 -14.311511 -14.113223 30.614311 6.415569 -1.213789 -11.084061 -3.082893 8.306409 -18.050018 0.123978 0.693169 0.000000 0.000000 0.000000 3.801494 -14.630721 7.917783 2.163578 5.604672 1.211135 5.744943 9.387602 2.173300 0.894286 -2.007812 0.726586 0.000000 0.000000 0.000000 4.966251 9.238228 2.178874 -2.437237 0.001782 -1.964109 -7.401669 -1.845554 -11.899140 0.000000 0.000000 0.000000 4.745653 9.478064 1.939983 0.500444 0.325436 -13.161245 1.240845 2.160035 -1.808376 -19.886412 -25.398029 -70.151937 0.512767 -65.452323 -1.432098 0.000000 0.000000 0.000000 4.964246 9.463015 2.220940 1.049015 11.047185 18.289831 -1.920202 2.510236 -1.502851 -45.777208 56.273351 71.959287 -2.399023 40.453213 0.937668 0.000000 0.000000 0.000000 
-1.562530 110.563370 1.763680 0.000000 0.000000 0.000000 4.306193 -15.739566 8.777700 -26.073276 -8.168391 -9.231950 14.856669 -5.334645 -7.499792 8.875923 -25.288835 5.220028 -1.499000 -0.306433 0.797835 0.000000 0.000000 0.000000 4.814053 -13.729549 8.822083 3.340462 -14.184925 -13.641005 29.078540 6.469713 -0.908534 -11.873415 -2.567714 7.757387 -17.638793 0.200972 0.398821 0.000000 0.000000 0.000000 3.685637 -14.835470 7.459646 2.381766 5.692714 1.545759 5.702483 9.338130 2.148468 0.893854 -1.918253 0.665274 0.000000 0.000000 0.000000 4.959694 9.167342 2.147802 -2.882330 0.015176 -2.004617 -7.892587 -2.063991 -11.733701 0.000000 0.000000 0.000000 4.713965 9.410424 1.920826 0.485557 0.224655 -13.206143 1.183668 2.321986 -1.776380 -20.385569 -25.992271 -70.248981 0.657858 -65.511117 -1.360528 0.000000 0.000000 0.000000 4.931071 9.397936 2.202565 1.005214 10.908149 18.274434 -1.949442 2.557028 -1.455292 -45.762565 56.131068 71.847299 -2.420663 41.397517 0.998362 0.000000 0.000000 0.000000 
-1.504889 110.212708 1.723743 0.000000 0.000000 0.000000 4.009751 -16.531240 8.231527 -26.468991 -8.153844 -8.810255 16.048846 -5.489482 -7.477981 8.341585 -25.633944 4.774835 -1.431357 -0.068027 0.620633 0.000000 0.000000 0.000000 4.851912 -14.371502 8.234470 4.802278 -14.239816 -13.015202 27.305338 6.507698 -0.557908 -12.385819 -1.934753 7.130440 -17.762791 0.218481 0.233310 0.000000 0.000000 0.000000 3.542722 -15.032731 7.006169 2.601132 5.839822 1.899167 5.651649 9.288545 2.115491 0.895098 -1.846228 0.659714 0.000000 0.000000 0.000000 4.933805 9.100657 2.111772 -3.445807 -0.030065 -2.027011 -8.519267 -2.279775 -11.515770 0.000000 0.000000 0.000000 4.671402 9.346638 1.902639 0.469854 0.165426 -13.277859 1.084378 2.431959 -1.782757 -20.756771 -26.708601 -70.289074 0.735622 -65.594405 -1.343403 0.000000 0.000000 0.000000 4.878718 9.329292 2.170063 0.940200 10.760676 18.220870 -1.879908 2.632571 -1.438836 -45.575711 55.888843 71.584330 -2.464197 42.580151 1.082244 0.000000 0.000000 0.000000 
-1.481175 109.872185 1.715263 0.000000 0.000000 0.000000 3.753636 -17.317443 7.717425 -26.852458 -8.256483 -8.438142 17.229145 -5.614791 -7.336705 7.604706 -25.925300 4.291437 -1.350006 0.212682 0.393202 0.000000 0.000000 0.000000 4.827466 -15.067571 7.668860 6.323099 -14.515696 -12.294554 25.430150 6.480009 -0.227263 -12.727042 -1.211510 6.445758 -18.144983 0.160216 0.269526 0.000000 0.000000 0.000000 3.445329 -15.187902 6.600619 2.790242 6.025612 2.234349 5.602402 9.247098 2.070987 0.858020 -1.807634 0.663386 0.000000 0.000000 0.000000 4.882945 9.039186 2.076885 -4.052690 -0.126087 -2.013533 -9.216900 -2.456295 -11.271108 0.000000 0.000000 0.000000 4.604093 9.294568 1.877579 0.448354 0.177423 -13.364870 0.947506 2.430668 -1.793388 -20.979783 -27.481321 -70.292373 0.726493 -65.730496 -1.382494 0.000000 0.000000 0.000000 4.812133 9.263146 2.122479 0.858232 10.596918 18.095553 -1.780687 2.667653 -1.418474 -45.250741 55.547196 71.187230 -2.528159 43.895744 1.170626 0.000000 0.000000 0.000000 
-1.439323 109.550415 1.735825 0.000000 0.000000 0.000000 3.593348 -17.950436 7.261834 -27.290046 -8.457945 -8.123653 18.348501 -5.877161 -7.102842 6.839408 -26.299599 3.634167 -1.350000 0.525956 0.162347 0.000000 0.000000 0.000000 4.767869 -15.756080 7.197980 7.855205 -15.031614 -11.569931 23.790580 6.269407 0.012777 -13.259275 -0.441930 5.628135 -18.023655 0.053173 0.497803 0.000000 0.000000 0.000000 3.426437 -15.310089 6.269404 2.950909 6.224409 2.518387 5.546692 9.210865 2.016778 0.804644 -1.799977 0.626248 0.000000 0.000000 0.000000 4.807562 8.979678 2.047349 -4.644369 -0.259021 -1.961575 -9.926434 -2.612958 -11.032177 0.000000 0.000000 0.000000 4.507455 9.251250 1.840940 0.421327 0.250276 -13.446156 0.790326 2.356137 -1.797111 -21.150569 -28.258099 -70.302434 0.653139 -65.892331 -1.447217 0.000000 0.000000 0.000000 4.737931 9.206644 2.063343 0.769407 10.399639 17.892801 -1.688584 2.660720 -1.411762 -44.915307 55.074862 70.789324 -2.596653 45.223345 1.233312 0.000000 0.000000 0.000000 
-1.404339 109.282928 1.771816 0.000000 0.000000 0.000000 3.546802 -18.437157 6.873277 -27.824808 -8.734547 -7.832748 19.347732 -6.275546 -6.836957 6.187721 -26.781561 2.784530 -1.626920 0.863070 0.010670 0.000000 0.000000 0.000000 4.705726 -16.341496 6.811045 9.138931 -15.770258 -10.918308 22.580862 5.858553 0.117347 -14.107978 0.304842 4.937104 -17.133451 -0.032959 0.780623 0.000000 0.000000 0.000000 3.469477 -15.429956 5.996842 3.111915 6.419154 2.752580 5.490330 9.171587 1.958283 0.753056 -1.784482 0.623732 0.000000 0.000000 0.000000 4.701407 8.913146 2.027417 -5.160667 -0.409378 -1.857229 -10.587936 -2.734393 -10.822803 0.000000 0.000000 0.000000 4.397490 9.200951 1.793427 0.388300 0.358008 -13.494190 0.602244 2.229089 -1.797618 -21.352739 -29.002739 -70.367655 0.562721 -66.023785 -1.496880 0.000000 0.000000 0.000000 4.672186 9.160166 1.998202 0.674975 10.178090 17.654079 -1.575527 2.673531 -1.398485 -44.660005 54.500019 70.500072 -2.658194 46.466074 1.263015 0.000000 0.000000 0.000000 
-1.379866 109.063988 1.762932 0.000000 0.000000 0.000000 3.676540 -18.961527 6.562251 -28.437354 -9.010265 -7.520952 20.226828 -6.606950 -6.597520 5.750776 -27.216344 2.040975 -2.098968 1.220170 -0.023374 0.000000 0.000000 0.000000 4.744123 -16.841790 6.490627 9.802870 -16.531503 -10.424012 22.011869 5.516318 -0.005272 -14.951120 0.952585 5.343919 -16.622860 -0.040620 0.875909 0.000000 0.000000 0.000000 3.592273 -15.561642 5.757600 3.232084 6.594472 2.945426 5.436428 9.110765 1.901496 0.715496 -1.814595 0.594399 0.000000 0.000000 0.000000 4.576764 8.830635 2.017579 -5.553150 -0.538954 -1.708207 -11.201238 -2.789189 -10.623017 0.000000 0.000000 0.000000 4.290060 9.134681 1.744676 0.350536 0.444337 -13.484662 0.417407 2.094597 -1.811317 -21.612373 -29.661452 -70.513445 0.498582 -66.091328 -1.506299 0.000000 0.000000 0.000000 4.627014 9.105750 1.939653 0.579401 9.971148 17.424335 -1.454537 2.711105 -1.310863 -44.543181 53.929616 70.352485 -2.715967 47.560786 1.278108 0.000000 0.000000 0.000000 
-1.340945 108.883072 1.701717 0.000000 0.000000 0.000000 3.944659 -19.569875 6.270503 -28.968960 -9.020539 -7.105867 20.994051 -6.635714 -6.432691 5.561449 -27.422120 1.771296 -2.388679 1.596543 -0.019135 0.000000 0.000000 0.000000 4.805036 -17.317120 6.174454 9.649679 -17.099766 -10.007553 22.314938 5.321230 -0.424667 -15.410333 1.393810 7.185415 -17.116562 0.044483 0.673187 0.000000 0.000000 0.000000 3.747441 -15.704806 5.518527 3.326395 6.744435 3.078659 5.378698 9.024396 1.850902 0.695947 -1.846512 0.570010 0.000000 0.000000 0.000000 4.455496 8.723582 2.017897 -5.781136 -0.649232 -1.535697 -11.801372 -2.745129 -10.405423 0.000000 0.000000 0.000000 4.207283 9.042853 1.710103 0.314202 0.471806 -13.429925 0.207603 2.015735 -1.872089 -21.900324 -30.185003 -70.716172 0.470929 -66.120739 -1.469002 0.000000 0.000000 0.000000 4.612775 9.027955 1.890224 0.498888 9.808472 17.220160 -1.318089 2.803637 -1.196336 -44.540367 53.447637 70.272299 -2.786191 48.542233 1.305358 0.000000 0.000000 0.000000 
